# xmcd
#
# Track frame offsets:
#	150
#	16792
#	35565
#	51455
#	64286
#	78252
#	96343
#	111586
#	134327
#	154273
#	171252
#	186146
#	207271
#	226555
#	242591
#	260734
#	288979
#
# Disc length: 4065 seconds
#
# Revision: 4
# Processed by: cddbd v1.5.2PL0 Copyright (c) Steve Scherf et al.
# Submitted via: EasyCDDAExtractor 15.3.0.1
#
DISCID=f20fdf11
DTITLE=Cher - Closer To The Truth (Target Deluxe Edition)
DYEAR=2013
DGENRE=Pop
TTITLE0=Woman's World
TTITLE1=Take It Like A Man
TTITLE2=My Love
TTITLE3=Dressed To Kill
TTITLE4=Red
TTITLE5=Lovers Forever
TTITLE6=I Walk Alone
TTITLE7=Sirens
TTITLE8=Favorite Scars
TTITLE9=I Hope You Find It
TTITLE10=Lie To Me
TTITLE11=I Don't Have To Sleep To Dream (Bonus Track)
TTITLE12=Pride (Bonus Track)
TTITLE13=You Haven't Seen The Last Of Me (Original Version) (Bonus Track)
TTITLE14=Woman's World (R3hab Remix)
TTITLE15=Woman's World (Jodie Harsh Remix)
TTITLE16=Will You Wait For Me (Bonus Track)
EXTD=
EXTT0=
EXTT1=
EXTT2=
EXTT3=
EXTT4=
EXTT5=
EXTT6=
EXTT7=
EXTT8=
EXTT9=
EXTT10=
EXTT11=
EXTT12=
EXTT13=
EXTT14=
EXTT15=
EXTT16=
PLAYORDER=
